<svg xmlns="http://www.w3.org/2000/svg" viewBox="0 0 192 192"><rect width="192" height="192" fill="#003594"/><path d="M45.67 116.60Q39.08 116.60 36.17 113.32Q33.26 110.03 33.26 102.87L33.26 98.17L42.78 98.17L42.78 104.18Q42.78 105.85 43.28 106.79Q43.79 107.74 45.04 107.74Q46.36 107.74 46.86 106.97Q47.37 106.21 47.37 104.46Q47.37 102.24 46.93 100.75Q46.49 99.26 45.41 97.91Q44.33 96.55 42.42 94.75L38.10 90.65Q33.26 86.08 33.26 80.20Q33.26 74.05 36.12 70.82Q38.97 67.60 44.39 67.60Q51.01 67.60 53.78 71.12Q56.56 74.65 56.56 81.84L46.77 81.84L46.77 78.53Q46.77 77.55 46.21 77Q45.65 76.46 44.69 76.46Q43.54 76.46 43.01 77.10Q42.47 77.74 42.47 78.75Q42.47 79.77 43.02 80.94Q43.57 82.12 45.18 83.65L50.73 88.98Q52.40 90.57 53.79 92.33Q55.19 94.09 56.04 96.43Q56.88 98.77 56.88 102.13Q56.88 108.91 54.38 112.76Q51.88 116.60 45.67 116.60M69.65 116.16L60.08 116.16L60.08 68.03L69.65 68.03L69.65 85.23L74.19 85.23L74.19 68.03L83.76 68.03L83.76 116.16L74.19 116.16L74.19 94.34L69.65 94.34L69.65 116.16M107.91 116.16L88.03 116.16L88.03 68.03L107.28 68.03L107.28 77.33L97.82 77.33L97.82 86.71L106.90 86.71L106.90 95.76L97.82 95.76L97.82 106.78L107.91 106.78L107.91 116.16M130.96 116.16L111.08 116.16L111.08 68.03L130.33 68.03L130.33 77.33L120.87 77.33L120.87 86.71L129.95 86.71L129.95 95.76L120.87 95.76L120.87 106.78L130.96 106.78L130.96 116.16M143.54 116.16L134.13 116.16L134.13 68.03L144.03 68.03L148.46 91.09L148.46 68.03L157.76 68.03L157.76 116.16L148.35 116.16L143.54 92.10" fill="#FAFAF7"/><line x1="64" y1="130" x2="128" y2="130" stroke="#FFA300" stroke-width="3" stroke-linecap="square"/></svg>
