<svg xmlns="http://www.w3.org/2000/svg" viewBox="0 0 512 512"><rect width="512" height="512" fill="#003594"/><path d="M144.56 301.61Q129.97 301.61 123.52 294.34Q117.08 287.08 117.08 271.21L117.08 260.80L138.15 260.80L138.15 274.12Q138.15 277.81 139.27 279.90Q140.39 281.99 143.17 281.99Q146.08 281.99 147.20 280.30Q148.32 278.60 148.32 274.73Q148.32 269.82 147.35 266.52Q146.38 263.22 143.99 260.22Q141.60 257.23 137.36 253.23L127.79 244.15Q117.08 234.04 117.08 221.02Q117.08 207.40 123.40 200.25Q129.73 193.11 141.72 193.11Q156.37 193.11 162.52 200.92Q168.66 208.73 168.66 224.65L146.99 224.65L146.99 217.33Q146.99 215.15 145.74 213.94Q144.50 212.73 142.38 212.73Q139.84 212.73 138.66 214.15Q137.48 215.57 137.48 217.81Q137.48 220.05 138.69 222.66Q139.90 225.26 143.47 228.65L155.76 240.46Q159.46 243.97 162.55 247.87Q165.63 251.78 167.51 256.96Q169.39 262.13 169.39 269.58Q169.39 284.60 163.85 293.10Q158.31 301.61 144.56 301.61M197.66 300.64L176.47 300.64L176.47 194.08L197.66 194.08L197.66 232.16L207.71 232.16L207.71 194.08L228.91 194.08L228.91 300.64L207.71 300.64L207.71 252.32L197.66 252.32L197.66 300.64M282.37 300.64L238.35 300.64L238.35 194.08L280.98 194.08L280.98 214.66L260.03 214.66L260.03 235.43L280.13 235.43L280.13 255.47L260.03 255.47L260.03 279.87L282.37 279.87L282.37 300.64M333.41 300.64L289.39 300.64L289.39 194.08L332.02 194.08L332.02 214.66L311.07 214.66L311.07 235.43L331.17 235.43L331.17 255.47L311.07 255.47L311.07 279.87L333.41 279.87L333.41 300.64M361.26 300.64L340.43 300.64L340.43 194.08L362.35 194.08L372.16 245.12L372.16 194.08L392.75 194.08L392.75 300.64L371.92 300.64L361.26 247.36" fill="#FAFAF7"/><line x1="196" y1="332" x2="316" y2="332" stroke="#FFA300" stroke-width="6" stroke-linecap="square"/></svg>
