<svg xmlns="http://www.w3.org/2000/svg" viewBox="0 0 512 512"><rect width="512" height="512" fill="#003594"/><path d="M121.20 311.17Q103.55 311.17 95.75 302.38Q87.95 293.59 87.95 274.40L87.95 261.81L113.43 261.81L113.43 277.92Q113.43 282.39 114.79 284.91Q116.14 287.44 119.51 287.44Q123.03 287.44 124.38 285.39Q125.74 283.34 125.74 278.65Q125.74 272.72 124.57 268.73Q123.40 264.74 120.50 261.11Q117.61 257.49 112.48 252.65L100.91 241.67Q87.95 229.43 87.95 213.69Q87.95 197.21 95.60 188.56Q103.25 179.92 117.76 179.92Q135.48 179.92 142.91 189.37Q150.35 198.82 150.35 218.08L124.13 218.08L124.13 209.22Q124.13 206.58 122.63 205.12Q121.12 203.65 118.56 203.65Q115.48 203.65 114.06 205.37Q112.63 207.09 112.63 209.80Q112.63 212.51 114.09 215.66Q115.56 218.81 119.88 222.92L134.75 237.20Q139.22 241.45 142.95 246.17Q146.69 250.89 148.96 257.16Q151.23 263.42 151.23 272.43Q151.23 290.59 144.53 300.88Q137.82 311.17 121.20 311.17M185.43 310L159.80 310L159.80 181.09L185.43 181.09L185.43 227.16L197.59 227.16L197.59 181.09L223.22 181.09L223.22 310L197.59 310L197.59 251.55L185.43 251.55L185.43 310M287.90 310L234.65 310L234.65 181.09L286.21 181.09L286.21 206L260.87 206L260.87 231.12L285.19 231.12L285.19 255.36L260.87 255.36L260.87 284.88L287.90 284.88L287.90 310M349.64 310L296.39 310L296.39 181.09L347.96 181.09L347.96 206L322.61 206L322.61 231.12L346.93 231.12L346.93 255.36L322.61 255.36L322.61 284.88L349.64 284.88L349.64 310M383.33 310L358.14 310L358.14 181.09L384.65 181.09L396.52 242.84L396.52 181.09L421.42 181.09L421.42 310L396.22 310L383.33 245.55" fill="#FAFAF7"/><line x1="168" y1="350" x2="344" y2="350" stroke="#FFA300" stroke-width="7" stroke-linecap="square"/></svg>
