<svg xmlns="http://www.w3.org/2000/svg" viewBox="0 0 192 192"><rect width="192" height="192" fill="#0A0A0A"/><path d="M51.07 105.39Q45.18 105.39 42.58 102.46Q39.98 99.53 39.98 93.13L39.98 88.94L48.48 88.94L48.48 94.31Q48.48 95.80 48.93 96.64Q49.38 97.48 50.50 97.48Q51.68 97.48 52.13 96.80Q52.58 96.11 52.58 94.55Q52.58 92.57 52.19 91.24Q51.80 89.91 50.83 88.70Q49.87 87.50 48.16 85.88L44.30 82.22Q39.98 78.14 39.98 72.90Q39.98 67.40 42.53 64.52Q45.08 61.64 49.92 61.64Q55.83 61.64 58.30 64.79Q60.78 67.94 60.78 74.36L52.04 74.36L52.04 71.41Q52.04 70.53 51.54 70.04Q51.04 69.55 50.19 69.55Q49.16 69.55 48.69 70.12Q48.21 70.70 48.21 71.60Q48.21 72.50 48.70 73.55Q49.19 74.60 50.63 75.97L55.58 80.73Q57.07 82.15 58.32 83.72Q59.56 85.30 60.32 87.39Q61.08 89.47 61.08 92.48Q61.08 98.53 58.84 101.96Q56.61 105.39 51.07 105.39M72.48 105L63.93 105L63.93 62.03L72.48 62.03L72.48 77.39L76.53 77.39L76.53 62.03L85.07 62.03L85.07 105L76.53 105L76.53 85.52L72.48 85.52L72.48 105M106.63 105L88.88 105L88.88 62.03L106.07 62.03L106.07 70.33L97.62 70.33L97.62 78.71L105.73 78.71L105.73 86.79L97.62 86.79L97.62 96.63L106.63 96.63L106.63 105M127.21 105L109.46 105L109.46 62.03L126.65 62.03L126.65 70.33L118.20 70.33L118.20 78.71L126.31 78.71L126.31 86.79L118.20 86.79L118.20 96.63L127.21 96.63L127.21 105M138.44 105L130.05 105L130.05 62.03L138.88 62.03L142.84 82.61L142.84 62.03L151.14 62.03L151.14 105L142.74 105L138.44 83.52" fill="#FFA300"/><line x1="66" y1="116" x2="126" y2="116" stroke="#FAFAF7" stroke-width="2.5" stroke-linecap="square"/><path d="M86.81 148L83.77 148L83.77 132.53L87.86 132.53Q89.14 132.53 89.89 133.10Q90.64 133.67 90.97 134.73Q91.29 135.78 91.29 137.24Q91.29 138.65 91.02 139.69Q90.75 140.73 90.05 141.30Q89.35 141.87 88.07 141.87L86.81 141.87L86.81 148M86.81 135.35L86.81 139.10L86.99 139.10Q87.85 139.10 88.04 138.61Q88.23 138.13 88.23 137.19Q88.23 136.31 88.05 135.83Q87.86 135.35 87.15 135.35L86.81 135.35M95.40 148L92.27 148L92.27 132.53L97.02 132.53Q98.20 132.53 98.81 133.07Q99.41 133.61 99.62 134.58Q99.83 135.55 99.83 136.86Q99.83 138.13 99.51 138.89Q99.19 139.64 98.30 139.93Q99.03 140.08 99.32 140.66Q99.62 141.23 99.62 142.15L99.62 148L96.57 148L96.57 141.94Q96.57 141.27 96.29 141.10Q96.01 140.94 95.40 140.94L95.40 148M95.42 135.40L95.42 138.26L96.16 138.26Q96.80 138.26 96.80 136.86Q96.80 135.96 96.66 135.68Q96.52 135.40 96.14 135.40L95.42 135.40M104.54 148.14Q102.68 148.14 101.70 147.02Q100.72 145.90 100.72 143.78L100.72 136.43Q100.72 134.45 101.70 133.42Q102.67 132.39 104.54 132.39Q106.41 132.39 107.38 133.42Q108.35 134.45 108.35 136.43L108.35 143.78Q108.35 145.90 107.37 147.02Q106.39 148.14 104.54 148.14M104.56 145.29Q105.27 145.29 105.27 143.93L105.27 136.38Q105.27 135.24 104.58 135.24Q103.81 135.24 103.81 136.41L103.81 143.95Q103.81 144.67 103.98 144.98Q104.16 145.29 104.56 145.29" fill="#FAFAF7"/></svg>
