<svg xmlns="http://www.w3.org/2000/svg" viewBox="0 0 512 512"><rect width="512" height="512" fill="#0A0A0A"/><path d="M139.17 280.42Q123.87 280.42 117.11 272.80Q110.35 265.18 110.35 248.55L110.35 237.63L132.44 237.63L132.44 251.60Q132.44 255.47 133.62 257.66Q134.79 259.85 137.71 259.85Q140.76 259.85 141.93 258.07Q143.11 256.29 143.11 252.23Q143.11 247.09 142.09 243.63Q141.08 240.17 138.57 237.03Q136.06 233.89 131.62 229.70L121.59 220.18Q110.35 209.58 110.35 195.93Q110.35 181.65 116.99 174.16Q123.62 166.67 136.19 166.67Q151.55 166.67 157.99 174.85Q164.44 183.04 164.44 199.74L141.71 199.74L141.71 192.06Q141.71 189.77 140.41 188.50Q139.11 187.23 136.89 187.23Q134.22 187.23 132.98 188.72Q131.74 190.22 131.74 192.56Q131.74 194.91 133.01 197.64Q134.28 200.37 138.03 203.93L150.91 216.30Q154.79 219.99 158.02 224.08Q161.26 228.17 163.23 233.60Q165.20 239.03 165.20 246.84Q165.20 262.58 159.39 271.50Q153.58 280.42 139.17 280.42M194.84 279.40L172.62 279.40L172.62 167.68L194.84 167.68L194.84 207.61L205.38 207.61L205.38 167.68L227.59 167.68L227.59 279.40L205.38 279.40L205.38 228.75L194.84 228.75L194.84 279.40M283.64 279.40L237.50 279.40L237.50 167.68L282.18 167.68L282.18 189.26L260.22 189.26L260.22 211.04L281.30 211.04L281.30 232.05L260.22 232.05L260.22 257.63L283.64 257.63L283.64 279.40M337.15 279.40L291.01 279.40L291.01 167.68L335.69 167.68L335.69 189.26L313.73 189.26L313.73 211.04L334.81 211.04L334.81 232.05L313.73 232.05L313.73 257.63L337.15 257.63L337.15 279.40M366.35 279.40L344.52 279.40L344.52 167.68L367.50 167.68L377.78 221.19L377.78 167.68L399.36 167.68L399.36 279.40L377.53 279.40L366.35 223.54" fill="#FFA300"/><line x1="188" y1="308" x2="324" y2="308" stroke="#FAFAF7" stroke-width="6" stroke-linecap="square"/><path d="M230.48 392L222.03 392L222.03 349.03L233.38 349.03Q236.94 349.03 239.03 350.62Q241.12 352.21 242.02 355.13Q242.93 358.06 242.93 362.12Q242.93 366.02 242.17 368.92Q241.41 371.81 239.47 373.40Q237.53 374.98 233.97 374.98L230.48 374.98L230.48 392M230.48 356.87L230.48 367.27L230.96 367.27Q233.36 367.27 233.89 365.93Q234.43 364.58 234.43 361.97Q234.43 359.53 233.91 358.20Q233.38 356.87 231.43 356.87L230.48 356.87M254.33 392L245.64 392L245.64 349.03L258.82 349.03Q262.12 349.03 263.80 350.53Q265.48 352.03 266.06 354.73Q266.63 357.43 266.63 361.07Q266.63 364.58 265.74 366.68Q264.85 368.78 262.38 369.59Q264.41 370 265.23 371.60Q266.05 373.20 266.05 375.74L266.05 392L257.57 392L257.57 375.18Q257.57 373.30 256.81 372.85Q256.04 372.40 254.33 372.40L254.33 392M254.38 356.99L254.38 364.95L256.45 364.95Q258.23 364.95 258.23 361.07Q258.23 358.55 257.84 357.77Q257.45 356.99 256.38 356.99L254.38 356.99M279.72 392.39Q274.57 392.39 271.84 389.28Q269.12 386.17 269.12 380.28L269.12 359.87Q269.12 354.35 271.82 351.50Q274.52 348.64 279.72 348.64Q284.92 348.64 287.62 351.50Q290.31 354.35 290.31 359.87L290.31 380.28Q290.31 386.17 287.59 389.28Q284.87 392.39 279.72 392.39M279.79 384.48Q281.74 384.48 281.74 380.70L281.74 359.72Q281.74 356.55 279.84 356.55Q277.69 356.55 277.69 359.80L277.69 380.75Q277.69 382.75 278.18 383.61Q278.67 384.48 279.79 384.48" fill="#FAFAF7"/></svg>
