<svg xmlns="http://www.w3.org/2000/svg" viewBox="0 0 512 512"><rect width="512" height="512" fill="#0A0A0A"/><path d="M157.15 276.66Q144.20 276.66 138.48 270.21Q132.76 263.77 132.76 249.70L132.76 240.46L151.45 240.46L151.45 252.27Q151.45 255.55 152.45 257.40Q153.44 259.26 155.91 259.26Q158.49 259.26 159.48 257.75Q160.48 256.25 160.48 252.81Q160.48 248.46 159.62 245.53Q158.76 242.61 156.63 239.95Q154.51 237.29 150.75 233.74L142.27 225.69Q132.76 216.72 132.76 205.17Q132.76 193.09 138.37 186.75Q143.99 180.41 154.62 180.41Q167.62 180.41 173.07 187.34Q178.52 194.27 178.52 208.39L159.29 208.39L159.29 201.89Q159.29 199.96 158.19 198.89Q157.09 197.81 155.21 197.81Q152.96 197.81 151.91 199.07Q150.86 200.34 150.86 202.32Q150.86 204.31 151.94 206.62Q153.01 208.93 156.18 211.94L167.08 222.41Q170.36 225.53 173.10 228.99Q175.84 232.46 177.50 237.05Q179.17 241.64 179.17 248.25Q179.17 261.57 174.25 269.11Q169.34 276.66 157.15 276.66M204.25 275.80L185.45 275.80L185.45 181.27L204.25 181.27L204.25 215.05L213.17 215.05L213.17 181.27L231.96 181.27L231.96 275.80L213.17 275.80L213.17 232.94L204.25 232.94L204.25 275.80M279.39 275.80L240.34 275.80L240.34 181.27L278.16 181.27L278.16 199.53L259.57 199.53L259.57 217.95L277.40 217.95L277.40 235.73L259.57 235.73L259.57 257.38L279.39 257.38L279.39 275.80M324.67 275.80L285.62 275.80L285.62 181.27L323.43 181.27L323.43 199.53L304.85 199.53L304.85 217.95L322.68 217.95L322.68 235.73L304.85 235.73L304.85 257.38L324.67 257.38L324.67 275.80M349.38 275.80L330.90 275.80L330.90 181.27L350.34 181.27L359.04 226.55L359.04 181.27L377.31 181.27L377.31 275.80L358.83 275.80L349.38 228.53" fill="#FFA300"/><line x1="200" y1="290" x2="312" y2="290" stroke="#FAFAF7" stroke-width="5" stroke-linecap="square"/><path d="M234.56 354L227.46 354L227.46 317.91L237 317.91Q239.99 317.91 241.75 319.24Q243.50 320.57 244.26 323.03Q245.02 325.49 245.02 328.90Q245.02 332.18 244.38 334.61Q243.75 337.04 242.12 338.37Q240.49 339.71 237.49 339.71L234.56 339.71L234.56 354M234.56 324.49L234.56 333.23L234.97 333.23Q236.98 333.23 237.43 332.10Q237.88 330.97 237.88 328.78Q237.88 326.72 237.44 325.61Q237 324.49 235.36 324.49L234.56 324.49M254.60 354L247.29 354L247.29 317.91L258.37 317.91Q261.14 317.91 262.55 319.17Q263.97 320.43 264.45 322.69Q264.93 324.96 264.93 328.02Q264.93 330.97 264.18 332.73Q263.43 334.50 261.36 335.17Q263.06 335.52 263.75 336.87Q264.44 338.21 264.44 340.34L264.44 354L257.32 354L257.32 339.87Q257.32 338.29 256.68 337.91Q256.03 337.53 254.60 337.53L254.60 354M254.64 324.59L254.64 331.28L256.38 331.28Q257.88 331.28 257.88 328.02Q257.88 325.90 257.55 325.25Q257.22 324.59 256.32 324.59L254.64 324.59M275.92 354.33Q271.60 354.33 269.31 351.71Q267.02 349.10 267.02 344.16L267.02 327.01Q267.02 322.38 269.29 319.98Q271.56 317.58 275.92 317.58Q280.29 317.58 282.56 319.98Q284.82 322.38 284.82 327.01L284.82 344.16Q284.82 349.10 282.54 351.71Q280.25 354.33 275.92 354.33M275.98 347.68Q277.63 347.68 277.63 344.50L277.63 326.89Q277.63 324.22 276.03 324.22Q274.22 324.22 274.22 326.95L274.22 344.55Q274.22 346.23 274.63 346.96Q275.04 347.68 275.98 347.68" fill="#FAFAF7"/></svg>
